<svg xmlns="http://www.w3.org/2000/svg" xmlns:xlink="http://www.w3.org/1999/xlink" viewBox="0,0,256,256" width="30px" height="30px" fill-rule="nonzero"><g transform=""><g fill="none" fill-rule="nonzero" stroke="none" stroke-width="1" stroke-linecap="butt" stroke-linejoin="miter" stroke-miterlimit="10" stroke-dasharray="" stroke-dashoffset="0" font-family="none" font-weight="none" font-size="none" text-anchor="none" style="mix-blend-mode: normal"><g transform="scale(6.4,6.4)"><path d="M20,38.5c-10.201,0 -18.5,-8.299 -18.5,-18.5c0,-10.201 8.299,-18.5 18.5,-18.5c10.201,0 18.5,8.299 18.5,18.5c0,10.201 -8.299,18.5 -18.5,18.5z" fill="#028bc5"></path><path d="M20,2c9.925,0 18,8.075 18,18c0,9.925 -8.075,18 -18,18c-9.925,0 -18,-8.075 -18,-18c0,-9.925 8.075,-18 18,-18M20,1c-10.493,0 -19,8.507 -19,19c0,10.493 8.507,19 19,19c10.493,0 19,-8.507 19,-19c0,-10.493 -8.507,-19 -19,-19z" fill="#4788c7"></path><path d="M20,31c-6.065,0 -11,-4.935 -11,-11c0,-6.065 4.935,-11 11,-11c6.065,0 11,4.935 11,11c0,6.065 -4.935,11 -11,11zM20,11c-4.963,0 -9,4.037 -9,9c0,4.963 4.037,9 9,9c4.963,0 9,-4.037 9,-9c0,-4.963 -4.037,-9 -9,-9z" fill="#ffffff"></path><path d="M16,15v5v5l9,-5z" fill="#ffffff"></path></g></g></g></svg>