<svg xmlns="http://www.w3.org/2000/svg" xmlns:xlink="http://www.w3.org/1999/xlink" viewBox="0,0,256,256" width="30px" height="30px" fill-rule="nonzero"><g fill="none" fill-rule="nonzero" stroke="none" stroke-width="1" stroke-linecap="butt" stroke-linejoin="miter" stroke-miterlimit="10" stroke-dasharray="" stroke-dashoffset="0" font-family="none" font-weight="none" font-size="none" text-anchor="none" style="mix-blend-mode: normal"><g transform="scale(5.33333,5.33333)"><path d="M24,4c-11.04569,0 -20,8.95431 -20,20c0,11.04569 8.95431,20 20,20c11.04569,0 20,-8.95431 20,-20c0,-11.04569 -8.95431,-20 -20,-20z" fill="#028bc5"></path><path d="M27.723,23.039c0,-1.563 3.319,-2.012 3.319,-5.684c0,-2.203 -0.196,-3.531 -1.871,-4.313c0,-0.546 2.957,-0.187 2.957,-1.209c-0.513,0 -6.476,0 -6.476,0c0,0 -6.557,0.167 -6.557,5.915c0,5.752 5.732,5.088 5.732,5.088c0,0 0,0.865 0,1.453c0,0.594 0.77,0.391 0.864,1.583c-0.388,0 -7.964,-0.208 -7.964,4.998c0,5.206 6.679,4.959 6.679,4.959c0,0 7.722,0.365 7.722,-6.104c0,-3.871 -4.405,-5.121 -4.405,-6.686zM22.127,18.086c-0.604,-2.312 0.195,-4.543 1.786,-4.992c1.593,-0.453 3.374,1.059 3.981,3.367c0.605,2.309 -0.192,4.543 -1.785,4.992c-1.592,0.451 -3.375,-1.062 -3.982,-3.367zM25.444,34.167c-2.671,0.188 -4.946,-1.295 -5.077,-3.316c-0.133,-2.016 1.927,-3.805 4.6,-3.996c2.674,-0.188 4.947,1.297 5.08,3.314c0.131,2.024 -1.929,3.811 -4.603,3.998z" fill="#1565c0"></path><path d="M25.995,23.039c0,-1.563 3.318,-2.012 3.318,-5.684c0,-2.203 -0.195,-3.531 -1.87,-4.313c0,-0.546 2.956,-0.187 2.956,-1.209c-0.512,0 -6.476,0 -6.476,0c0,0 -6.556,0.167 -6.556,5.915c0,5.752 5.731,5.088 5.731,5.088c0,0 0,0.865 0,1.453c0,0.594 0.771,0.391 0.865,1.583c-0.388,0 -7.964,-0.208 -7.964,4.998c0,5.206 6.679,4.959 6.679,4.959c0,0 7.721,0.365 7.721,-6.104c0,-3.871 -4.404,-5.121 -4.404,-6.686zM20.399,18.086c-0.604,-2.312 0.194,-4.543 1.785,-4.992c1.593,-0.453 3.374,1.059 3.982,3.367c0.604,2.309 -0.193,4.543 -1.786,4.992c-1.591,0.451 -3.373,-1.062 -3.981,-3.367zM23.717,34.167c-2.671,0.188 -4.946,-1.295 -5.077,-3.316c-0.133,-2.016 1.927,-3.805 4.599,-3.996c2.675,-0.188 4.948,1.297 5.08,3.314c0.131,2.024 -1.928,3.811 -4.602,3.998z" fill="#e8eaf6"></path></g></g></svg>